<?xml version="1.0" standalone="no"?>
<!DOCTYPE svg PUBLIC "-//W3C//DTD SVG 20010904//EN"
 "http://www.w3.org/TR/2001/REC-SVG-20010904/DTD/svg10.dtd">
<svg version="1.0" xmlns="http://www.w3.org/2000/svg"
 width="953.000000pt" height="936.000000pt" viewBox="0 0 953.000000 936.000000"
 preserveAspectRatio="xMidYMid meet">

<g transform="translate(0.000000,936.000000) scale(0.100000,-0.100000)"
fill="#000000" stroke="none">
<path d="M655 9160 c-194 -3 -287 -9 -301 -17 -51 -29 -48 190 -51 -4018 -4
-4085 0 -4768 27 -4800 41 -49 -148 -46 3359 -52 3592 -5 5072 4 5154 31 131
42 262 162 310 281 15 39 32 97 37 130 14 85 13 3659 0 3745 -25 157 -137 307
-282 375 -93 44 -136 52 -339 61 l-167 7 -7 66 c-3 36 -13 87 -21 113 -21 64
-92 141 -160 173 -54 26 -59 26 -232 23 -165 -3 -180 -5 -225 -28 -101 -51
-157 -145 -165 -272 l-5 -78 -353 0 -354 0 0 60 c0 148 -89 271 -225 311 l-45
13 -1 1591 c-1 1732 -7 2196 -27 2233 -7 13 -28 32 -45 42 -32 20 -75 20
-2817 18 -1532 -1 -2911 -5 -3065 -8z m5675 -2073 l0 -1803 -54 -23 c-118 -49
-179 -134 -198 -275 l-11 -86 -348 0 -348 0 -6 48 c-22 179 -69 254 -195 311
-39 18 -66 21 -201 21 -187 0 -226 -10 -304 -81 -69 -64 -93 -113 -101 -215
l-7 -81 -121 -7 c-200 -11 -312 -45 -413 -126 -57 -45 -127 -140 -157 -214
l-21 -51 -3 -1912 c-2 -1898 -2 -1912 18 -1965 11 -29 20 -59 20 -65 0 -10
-337 -13 -1650 -13 l-1650 0 0 4170 0 4170 2875 0 2875 0 0 -1803z m-1256
-2093 c14 -13 16 -54 16 -293 0 -202 -3 -280 -12 -289 -8 -8 -49 -12 -120 -12
-97 0 -108 2 -118 20 -14 27 -1 572 14 582 6 4 55 8 108 8 75 0 100 -4 112
-16z m1509 4 c16 -12 17 -39 15 -303 l-3 -290 -109 -3 c-71 -2 -113 1 -122 9
-11 9 -14 65 -14 295 0 259 1 284 18 293 25 15 194 14 215 -1z m1521 -4 c14
-13 16 -54 16 -293 0 -226 -3 -281 -14 -290 -9 -8 -51 -11 -122 -9 l-109 3 -3
294 c-2 229 1 296 10 303 7 4 57 8 110 8 75 0 100 -4 112 -16z m-3550 -396 c3
-13 7 -77 9 -143 4 -135 19 -177 90 -246 71 -70 112 -82 285 -87 124 -3 162
-1 204 13 101 33 177 106 208 200 8 22 16 94 19 160 l6 120 345 0 345 0 5
-130 c5 -115 9 -137 33 -187 30 -62 83 -115 149 -150 40 -22 54 -23 223 -23
168 0 183 1 227 23 56 28 130 105 154 158 12 27 19 80 23 174 l6 135 344 3
c269 2 346 -1 353 -10 4 -7 8 -63 8 -125 0 -139 19 -197 86 -265 78 -79 115
-91 291 -96 123 -3 162 -1 205 13 75 23 142 75 178 137 32 57 36 79 46 241 l6
107 136 0 c190 0 271 -24 330 -96 48 -58 53 -94 50 -374 l-3 -255 -2400 0
-2400 0 0 280 c0 260 1 282 19 310 66 102 138 133 313 134 99 1 103 0 107 -21z
m4366 -2414 c0 -1101 -3 -1436 -12 -1468 -7 -24 -32 -60 -58 -87 -83 -86 125
-79 -2335 -79 -1640 0 -2188 3 -2219 12 -60 17 -116 57 -151 108 l-30 45 -3
1435 c-1 789 0 1440 2 1447 4 11 463 13 2406 13 l2400 0 0 -1426z"/>
<path d="M1323 8311 c-88 -6 -94 -8 -125 -39 -31 -31 -33 -37 -39 -130 -10
-141 -9 -1244 0 -1395 8 -119 10 -131 34 -154 23 -23 37 -27 134 -35 59 -5
449 -8 865 -6 749 3 757 3 785 24 57 43 57 42 63 505 l5 425 127 117 c133 123
156 158 143 217 -14 62 -74 110 -138 110 -48 0 -79 -25 -436 -350 -167 -152
-311 -275 -321 -275 -10 0 -56 36 -102 80 -162 155 -162 155 -222 155 -67 0
-110 -31 -126 -90 -20 -75 0 -101 287 -382 151 -148 163 -147 361 32 73 66
135 120 137 120 3 0 5 -92 5 -205 l0 -205 -665 0 -665 0 0 605 0 605 747 0
746 0 43 25 c58 34 82 94 63 157 -24 73 -51 84 -230 91 -179 8 -1342 6 -1476
-2z"/>
<path d="M4017 8311 c-107 -6 -109 -7 -137 -38 -55 -62 -47 -156 17 -199 28
-19 51 -21 229 -27 108 -4 530 -7 936 -7 810 0 768 -3 822 60 20 25 26 42 26
82 0 45 -4 54 -37 88 l-38 37 -190 6 c-222 8 -1470 6 -1628 -2z"/>
<path d="M3964 7563 c-43 -3 -56 -10 -85 -39 -30 -31 -34 -41 -34 -89 0 -50 3
-58 38 -92 l37 -38 918 -3 c504 -2 937 0 961 3 32 5 54 16 78 40 29 29 33 39
33 87 0 44 -5 60 -29 88 l-28 34 -124 7 c-123 7 -1668 9 -1765 2z"/>
<path d="M1333 5601 c-99 -6 -104 -7 -135 -39 -31 -31 -33 -37 -39 -130 -10
-141 -9 -1244 0 -1395 8 -119 10 -131 34 -154 23 -23 37 -27 134 -35 59 -5
449 -8 865 -6 749 3 757 3 785 24 58 43 58 41 61 504 l4 425 61 55 c203 181
226 212 205 288 -19 70 -85 110 -158 96 -32 -7 -153 -111 -555 -478 -88 -80
-167 -146 -175 -145 -8 0 -69 51 -135 114 -129 124 -163 143 -225 125 -72 -21
-112 -95 -88 -163 13 -35 129 -160 310 -334 123 -119 144 -116 337 57 74 66
135 120 137 120 2 0 4 -92 4 -205 l0 -205 -665 0 -665 0 0 604 0 604 753 4
752 3 36 22 c43 27 64 63 64 113 0 50 -21 86 -64 113 l-36 22 -750 1 c-412 1
-796 -1 -852 -5z"/>
<path d="M1348 2891 c-116 -6 -118 -6 -150 -39 -31 -31 -33 -37 -39 -130 -10
-140 -10 -1308 0 -1425 7 -86 11 -101 33 -124 23 -23 36 -26 154 -35 72 -5
456 -8 866 -6 729 3 737 3 765 24 58 43 58 42 61 503 l4 424 56 51 c215 193
237 224 207 302 -31 81 -100 111 -176 76 -28 -12 -168 -132 -374 -320 -194
-177 -334 -298 -341 -294 -6 4 -64 57 -128 117 -64 61 -131 116 -148 123 -92
39 -192 -54 -172 -159 6 -27 39 -66 153 -180 214 -213 245 -239 281 -239 54 0
92 24 225 144 l130 117 3 -198 c1 -108 0 -203 -2 -210 -4 -10 -112 -13 -523
-13 -285 0 -582 3 -660 7 l-143 6 0 604 0 603 653 1 c358 0 705 4 770 8 134 9
158 22 177 93 17 60 -2 112 -52 146 l-41 27 -736 1 c-405 1 -789 -1 -853 -5z"/>
<path d="M4803 3181 c-45 -12 -82 -38 -92 -64 -4 -12 -11 -199 -14 -416 -7
-432 -8 -423 53 -475 l32 -26 401 0 c386 0 403 1 435 20 62 38 63 47 60 490
-3 382 -4 399 -23 420 -47 52 -53 53 -450 56 -203 2 -385 0 -402 -5z m601
-287 c3 -9 6 -102 6 -209 0 -151 -3 -195 -14 -204 -9 -8 -75 -11 -217 -9
l-204 3 -3 205 c-1 112 0 210 2 217 4 10 54 13 215 13 181 0 210 -2 215 -16z"/>
<path d="M6125 3181 c-48 -12 -75 -30 -95 -64 -19 -30 -20 -53 -19 -417 0
-416 3 -437 52 -474 28 -21 38 -21 441 -21 465 0 450 -2 480 77 15 38 17 90
14 425 -4 523 43 475 -470 479 -205 2 -386 0 -403 -5z m593 -488 l2 -213 -22
-5 c-13 -3 -108 -4 -213 -3 l-190 3 -3 218 -2 217 212 -2 213 -3 3 -212z"/>
<path d="M7498 3181 c-84 -8 -115 -26 -138 -80 -7 -19 -10 -146 -8 -422 3
-363 4 -397 21 -423 36 -54 51 -56 481 -56 l395 0 36 31 c19 17 40 47 45 67 7
24 10 166 8 414 -3 362 -4 378 -24 404 -11 15 -33 37 -48 48 -26 20 -41 21
-359 22 -183 1 -367 -1 -409 -5z m560 -488 l2 -213 -22 -5 c-13 -3 -108 -4
-213 -3 l-190 3 -3 205 c-1 112 0 210 3 217 3 11 49 13 212 11 l208 -3 3 -212z"/>
<path d="M4794 1963 c-12 -2 -36 -17 -55 -32 l-33 -28 -7 -129 c-4 -71 -8
-253 -8 -404 -1 -308 2 -323 69 -368 l34 -23 401 3 c446 3 436 2 469 71 14 31
16 83 16 425 0 388 0 389 -23 423 -46 69 -48 69 -467 68 -206 -1 -384 -4 -396
-6z m611 -488 l0 -210 -217 -3 -218 -2 0 208 c0 115 3 212 7 216 4 3 102 5
217 4 l211 -3 0 -210z"/>
<path d="M6090 1952 c-19 -9 -45 -33 -58 -52 l-23 -34 3 -402 3 -402 25 -27
c52 -55 48 -55 467 -55 367 0 390 1 420 20 69 42 68 33 71 457 3 365 2 385
-17 428 -16 36 -29 50 -63 65 -40 18 -68 20 -418 20 -337 0 -378 -2 -410 -18z
m628 -479 l2 -213 -215 0 -215 0 0 215 0 215 213 -2 212 -3 3 -212z"/>
<path d="M7430 1952 c-19 -9 -45 -33 -58 -52 l-23 -34 3 -402 c3 -391 4 -403
24 -431 37 -49 58 -52 474 -52 365 -1 387 0 417 19 70 42 68 30 68 476 0 389
-1 403 -20 430 -11 15 -36 35 -55 45 -32 18 -64 19 -415 19 -342 0 -383 -2
-415 -18z m628 -479 l2 -213 -215 0 -215 0 0 215 0 215 213 -2 212 -3 3 -212z"/>
</g>
</svg>
