<?xml version="1.0" standalone="no"?>
<!DOCTYPE svg PUBLIC "-//W3C//DTD SVG 20010904//EN"
 "http://www.w3.org/TR/2001/REC-SVG-20010904/DTD/svg10.dtd">
<svg version="1.0" xmlns="http://www.w3.org/2000/svg"
 width="1307.000000pt" height="1207.000000pt" viewBox="0 0 1307.000000 1207.000000"
 preserveAspectRatio="xMidYMid meet">
<metadata>
Created by potrace 1.16, written by Peter Selinger 2001-2019
</metadata>
<g transform="translate(0.000000,1207.000000) scale(0.100000,-0.100000)"
fill="#000000" stroke="none">
<path d="M1250 11950 c-273 -25 -539 -143 -743 -330 -179 -165 -319 -415 -374
-670 -17 -82 -18 -280 -18 -4845 0 -4565 1 -4763 18 -4845 112 -520 508 -902
1031 -993 56 -9 1250 -12 5531 -12 l5460 0 80 23 c284 82 505 288 606 562 23
63 33 113 40 200 6 72 9 1077 7 2675 -3 2413 -4 2563 -21 2619 -81 271 -268
487 -510 589 -152 64 -112 61 -842 67 l-670 5 -7 203 c-6 165 -11 211 -26 245
-28 63 -67 103 -127 133 -134 65 -296 8 -359 -126 -18 -40 -21 -67 -24 -248
-4 -197 -4 -202 -25 -207 -12 -3 -150 -4 -307 -3 l-285 3 -5 1960 -5 1960 -22
80 c-135 499 -499 842 -998 942 -86 17 -271 18 -3705 19 -1988 1 -3653 -2
-3700 -6z m7325 -614 c191 -42 356 -170 439 -340 71 -146 67 -13 64 -2111 l-3
-1890 -750 0 -750 0 -5 205 c-6 227 -10 247 -74 318 -76 84 -212 110 -311 60
-63 -33 -98 -69 -127 -133 -20 -45 -23 -70 -28 -250 l-5 -200 -675 -5 -675 -5
-70 -24 c-312 -104 -528 -329 -611 -637 -18 -67 -19 -159 -19 -2699 0 -2474 1
-2634 18 -2693 9 -35 17 -66 17 -68 0 -2 -843 -4 -1872 -4 -2086 0 -1928 -5
-2080 71 -153 76 -273 225 -325 404 -17 57 -18 300 -21 4710 -2 3025 1 4679 7
4732 27 226 152 408 346 504 148 73 -177 67 3830 68 2980 0 3631 -2 3680 -13z
m-1552 -5076 c5 -173 8 -205 27 -247 90 -203 365 -217 474 -23 l31 55 5 205 5
205 1360 0 1360 0 5 -200 c6 -223 14 -258 81 -323 58 -57 104 -76 189 -76 85
-1 133 19 190 76 66 65 74 100 80 323 l5 200 620 0 620 0 62 -29 c73 -34 153
-112 186 -183 21 -47 22 -56 25 -525 l3 -477 -23 -6 c-13 -3 -1551 -4 -3418
-3 l-3395 3 -3 479 -2 479 24 53 c46 99 141 179 243 203 21 5 308 9 639 10
l601 1 6 -200z m5322 -3400 l0 -1825 -24 -45 c-54 -105 -151 -173 -268 -190
-100 -14 -6170 -14 -6248 1 -125 23 -235 109 -275 215 -20 54 -20 65 -20 1864
l0 1810 3418 -2 3417 -3 0 -1825z"/>
<path d="M3280 10651 c-69 -21 -130 -78 -610 -561 l-515 -520 -135 134 c-116
114 -143 136 -195 155 -108 41 -229 8 -315 -85 -82 -89 -104 -193 -65 -304 17
-50 43 -79 280 -316 238 -239 265 -263 318 -283 74 -27 150 -27 224 0 55 20
92 55 709 673 637 637 652 652 674 714 17 48 21 75 17 117 -16 159 -150 286
-299 284 -35 0 -74 -4 -88 -8z"/>
<path d="M4640 10055 l0 -305 1835 0 1835 0 0 305 0 305 -1835 0 -1835 0 0
-305z"/>
<path d="M4640 8775 l0 -305 1835 0 1835 0 0 305 0 305 -1835 0 -1835 0 0
-305z"/>
<path d="M3245 7321 c-52 -25 -128 -97 -575 -545 l-514 -515 -131 127 c-147
145 -193 173 -283 175 -122 2 -236 -71 -292 -188 -32 -66 -32 -159 -1 -230 33
-75 492 -534 575 -575 74 -38 157 -40 243 -9 55 20 92 55 709 673 625 624 653
653 674 711 40 109 12 224 -77 313 -95 95 -215 118 -328 63z"/>
<path d="M3290 4031 c-69 -22 -133 -81 -616 -563 l-521 -520 -124 125 c-153
155 -200 181 -312 175 -87 -5 -134 -26 -197 -89 -65 -65 -93 -127 -93 -209 0
-115 14 -135 296 -418 287 -288 309 -304 427 -304 136 -1 114 -20 836 704 614
616 643 646 664 703 68 183 -73 389 -273 401 -34 2 -73 0 -87 -5z"/>
<path d="M6566 3980 l-88 -5 -43 -47 -42 -47 -8 -279 c-8 -306 -1 -459 23
-510 8 -19 33 -46 55 -60 l41 -27 501 0 502 0 37 29 c21 16 48 50 60 75 20 44
21 59 20 383 -1 382 -5 403 -72 457 l-37 29 -430 3 c-237 2 -470 2 -519 -1z"/>
<path d="M8453 3971 c-17 -11 -43 -37 -57 -58 l-26 -38 0 -363 c0 -401 0 -404
63 -459 34 -30 40 -31 149 -38 62 -4 291 -5 509 -3 l396 3 37 29 c21 16 48 50
60 75 20 44 21 59 20 382 0 382 -4 403 -74 459 l-38 30 -503 0 c-481 0 -505
-1 -536 -19z"/>
<path d="M10421 3973 c-19 -9 -47 -37 -62 -62 l-29 -45 0 -350 c0 -207 4 -366
10 -388 6 -21 27 -51 49 -71 37 -33 44 -35 132 -42 52 -4 281 -5 510 -3 l416
3 37 29 c21 16 48 50 60 75 20 44 21 60 20 386 0 331 -1 342 -22 387 -13 26
-39 57 -60 72 l-38 26 -495 0 c-441 0 -498 -2 -528 -17z"/>
<path d="M6473 2471 c-17 -11 -43 -37 -57 -58 l-26 -38 0 -363 c0 -401 0 -404
63 -459 34 -30 40 -31 149 -38 62 -4 291 -5 509 -3 l396 3 37 29 c21 16 48 50
60 75 20 44 21 59 20 382 0 382 -4 403 -74 459 l-38 30 -503 0 c-481 0 -505
-1 -536 -19z"/>
<path d="M8461 2473 c-19 -9 -47 -37 -62 -62 l-29 -45 0 -350 c0 -207 4 -366
10 -388 6 -21 27 -51 49 -71 37 -33 44 -35 132 -42 52 -4 281 -5 510 -3 l416
3 37 29 c21 16 48 50 60 75 20 44 21 60 20 386 0 331 -1 342 -22 387 -13 26
-39 57 -60 72 l-38 26 -495 0 c-441 0 -498 -2 -528 -17z"/>
<path d="M10460 2480 c-49 -12 -107 -79 -115 -133 -4 -23 -5 -193 -3 -377 3
-374 3 -372 75 -427 l36 -28 446 -3 c525 -4 559 -2 606 39 69 61 70 66 70 434
0 182 -4 347 -8 368 -10 45 -60 105 -104 123 -26 11 -128 14 -500 13 -257 -1
-484 -5 -503 -9z"/>
</g>
</svg>
